{"title":"The Adventures of Buckaroo Banzai Across the 8th Dimension(1984)","uid":12349298,"size":1278273661,"categoryP":"video","categoryS":"movies","magnet":"?xt=urn:btih:71f0b54fec803abe18956c462e4e75beb1734607&amp;dn=The+Adventures+of+Buckaroo+Banzai+Across+the+8th+Dimension%281984%29&amp;tr=udp%3A%2F%2Ftracker.openbittorrent.com%3A80&amp;tr=udp%3A%2F%2Fopen.demonii.com%3A1337&amp;tr=udp%3A%2F%2Ftracker.coppersurfer.tk%3A6969&amp;tr=udp%3A%2F%2Fexodus.desync.com%3A6969","seeders":1,"leechers":0,"uploader":"dascuba","files":1,"time":1441398035,"description":"The Adventures of Buckaroo Banzai Across the 8th Dimension (1984)\nPG  |  103 min  |  Adventure, Comedy, Romance  |  10 August 1984 (USA)\n6.4 Your rating:   -/10   Ratings: 6.4/10 from 16,870 users   \nReviews: 209 user | 84 critic\nAdventurer/surgeon/rock musician Buckaroo Banzai and his band of men, the Hong Kong Cavaliers, take on evil alien invaders from the 8th dimension.\n\nDirector: W.D. Richter\nWriter: Earl Mac Rauch\nStars: Peter Weller, John Lithgow, Ellen Barkin \n\nGeneral\nComplete name                            : C:Buckaroo BanzaiBUCKAROO_Title2.mp4\nFormat                                   : MPEG-4\nFormat profile                           : Base Media\nCodec ID                                 : isom\nFile size                                : 1.19 GiB\nDuration                                 : 1h 44mn\nOverall bit rate mode                    : Constant\nOverall bit rate                         : 1 633 Kbps\nMovie name                               : BUCKAROO\nGenre                                    : Science_Fiction\nWriting application                      : Lavf54.6.100\n\nVideo\nID                                       : 1\nFormat                                   : MPEG-4 Visual\nFormat settings, BVOP                    : No\nFormat settings, QPel                    : No\nFormat settings, GMC                     : No warppoints\nFormat settings, Matrix                  : Default (H.263)\nCodec ID                                 : 20\nDuration                                 : 1h 44mn\nBit rate mode                            : Constant\nBit rate                                 : 1 499 Kbps\nWidth                                    : 720 pixels\nHeight                                   : 404 pixels\nDisplay aspect ratio                     : 16:9\nFrame rate mode                          : Constant\nFrame rate                               : 29.970 fps\nColor space                              : YUV\nChroma subsampling                       : 4:2:0\nBit depth                                : 8 bits\nScan type                                : Progressive\nCompression mode                         : Lossy\nBits/(Pixel*Frame)                       : 0.172\nStream size                              : 1.09 GiB (92%)\nWriting library                          : Lavc54.23.100\n\nAudio\nID                                       : 2\nFormat                                   : MPEG Audio\nFormat version                           : Version 1\nFormat profile                           : Layer 3\nCodec ID                                 : 6B\nDuration                                 : 1h 44mn\nBit rate mode                            : Constant\nBit rate                                 : 128 Kbps\nChannel(s)                               : 2 channels\nSampling rate                            : 44.1 KHz\nCompression mode                         : Lossy\nStream size                              : 95.6 MiB (8%)\nWriting library                          : LAME3.99.5","torrent":{"xt":"urn:btih:71f0b54fec803abe18956c462e4e75beb1734607","amp;dn":"The+Adventures+of+Buckaroo+Banzai+Across+the+8th+Dimension%281984%29","amp;tr":["udp%3A%2F%2Ftracker.openbittorrent.com%3A80","udp%3A%2F%2Fopen.demonii.com%3A1337","udp%3A%2F%2Ftracker.coppersurfer.tk%3A6969","udp%3A%2F%2Fexodus.desync.com%3A6969"],"infoHash":"71f0b54fec803abe18956c462e4e75beb1734607","infoHashBuffer":{"type":"Buffer","data":[113,240,181,79,236,128,58,190,24,149,108,70,46,78,117,190,177,115,70,7]},"announce":[],"urlList":[]}}